<!--?xml version="1.0" standalone="no"?-->
              <svg id="sw-js-blob-svg" viewBox="0 0 100 100" xmlns="http://www.w3.org/2000/svg" version="1.1">
                    <defs> 
                        <linearGradient id="sw-gradient" x1="0" x2="1" y1="1" y2="0">
                            <stop id="stop1" stop-color="rgba(248, 117, 55, 1)" offset="0%"></stop>
                            <stop id="stop2" stop-color="rgba(251, 168, 31, 1)" offset="100%"></stop>
                        </linearGradient>
                    </defs>
                <path fill="url(#sw-gradient)" d="M15.5,-31.1C17.7,-25.5,15.7,-16.7,17.5,-11C19.3,-5.3,25,-2.6,29.6,2.7C34.2,8,37.8,15.9,35.3,20.5C32.9,25.1,24.4,26.3,17.5,28.1C10.6,29.9,5.3,32.3,-0.5,33.1C-6.2,33.9,-12.4,33.1,-15.4,29C-18.4,25,-18.3,17.7,-22.6,12.3C-26.9,7,-35.7,3.5,-38.1,-1.4C-40.6,-6.3,-36.8,-12.7,-31.2,-15.9C-25.7,-19.2,-18.5,-19.3,-13,-23.1C-7.5,-26.9,-3.8,-34.2,1.4,-36.7C6.6,-39.1,13.2,-36.7,15.5,-31.1Z" width="100%" height="100%" transform="translate(50 50)" stroke-width="0" style="transition: 0.3s;"></path>
              </svg>